<svg xmlns="http://www.w3.org/2000/svg" viewBox="0 0 1024 1024" role="img" aria-label="clean-room emoji practice specimen"><defs><clipPath id="clip"><path d="M 512.0,801.0 C 457.0,735.6 185.2,570.5 185.2,384.7 C 185.2,209.3 419.1,137.0 512.0,312.5 C 604.9,137.0 838.8,209.3 838.8,384.7 C 838.8,570.5 567.0,735.6 512.0,801.0 Z"/></clipPath></defs><path d="M 512.0,801.0 C 457.0,735.6 185.2,570.5 185.2,384.7 C 185.2,209.3 419.1,137.0 512.0,312.5 C 604.9,137.0 838.8,209.3 838.8,384.7 C 838.8,570.5 567.0,735.6 512.0,801.0 Z" fill="#F04468"/><path d="M180 580Q512 900 884 520V920H120Z" fill="#182133" opacity=".28" clip-path="url(#clip)"/><ellipse cx="390" cy="300" rx="190" ry="110" fill="#fff" opacity=".42" clip-path="url(#clip)"/></svg>
