<svg xmlns="http://www.w3.org/2000/svg" width="1024" height="1024" viewBox="0 0 1024 1024" role="img" aria-labelledby="title desc">
  <title id="title">Sky Courier — wing satchel</title>
  <desc id="desc">A black calligraphic messenger satchel rises into one swept wing, with a broad paper-colored dry cut in its flap.</desc>
  <rect x="40" y="40" width="944" height="944" rx="212" fill="#F2E7D2"/>
  <path d="M190 688L254 374L404 426C470 304 582 218 812 184C708 286 672 386 680 486L842 424C796 562 714 648 610 686L518 820L396 716Z" fill="#202027"/>
  <path d="M372 476L648 506L610 718L330 684Z" fill="#D95045"/>
  <path d="M402 516L610 538L588 606L390 584Z" fill="#F2E7D2"/>
  <path d="M604 254L780 214L664 390L572 404Z" fill="#F2E7D2"/>
  <rect x="446" y="622" width="78" height="72" rx="14" fill="#202027"/>
</svg>
