<svg xmlns="http://www.w3.org/2000/svg" viewBox="0 0 1024 1024" role="img" aria-labelledby="title">
  <title id="title">Projection Keeper — original projection lantern study</title>
  <g><path d="M296 398Q296 264 430 236H594Q728 264 728 398V650Q728 774 604 802H420Q296 774 296 650Z" fill="#F2B568" stroke="#35282A" stroke-width="52"/><path d="M728 420L858 350V640L728 566Z" fill="#FFF2D3" stroke="#35282A" stroke-width="48" stroke-linejoin="round"/><path d="M350 278Q430 144 512 250Q594 144 674 278L620 330H404Z" fill="#6A8F7A" stroke="#35282A" stroke-width="48"/><circle cx="512" cy="490" r="132" fill="#FFF2D3" stroke="#35282A" stroke-width="44"/><path d="M450 472Q512 406 574 472Q552 558 512 578Q472 558 450 472Z" fill="#D96550" stroke="#35282A" stroke-width="34"/><path d="M386 688Q512 626 640 688" fill="none" stroke="#FFF2D3" stroke-width="42" stroke-linecap="round"/><path d="M296 632L182 720L332 746Z" fill="#6A8F7A" stroke="#35282A" stroke-width="42" stroke-linejoin="round"/></g>
</svg>
